<svg version="1.1" id="Layer_1" xmlns="http://www.w3.org/2000/svg" xmlns:xlink="http://www.w3.org/1999/xlink" x="0px" y="0px" viewBox="0 0 512 512" xml:space="preserve">
	<style type="text/css">
	.st0{fill:#FFFFFF;}
</style>
	<g id="XMLID_00000039111826604871741960000002425133589769643661_">
		<g id="XMLID_00000098209182784425102100000016729489111324240768_">
			<g>
				<path class="st0" d="M324.4,256c0,18.9-7.7,36-20,48.4c-12.4,12.4-29.5,20-48.4,20c-37.8,0-68.4-30.6-68.4-68.4
				s30.6-68.4,68.4-68.4S324.4,218.2,324.4,256z M300.5,256c0-12.3-5-23.4-13-31.4c-8-8.1-19.1-13-31.4-13
				c-24.6,0-44.5,19.9-44.5,44.5s19.9,44.5,44.5,44.5C280.5,300.5,300.5,280.5,300.5,256z" />
				<path class="st0" d="M343.5,185.3c0,4.5-1.8,8.6-4.8,11.5c-3,2.9-7,4.8-11.5,4.8c-9,0-16.3-7.3-16.3-16.3c0-9,7.3-16.3,16.3-16.3
				C336.2,169,343.5,176.3,343.5,185.3z" />
				<path d="M389.3,199.5v113c0,42.4-34.4,76.8-76.8,76.8h-113c-42.4,0-76.8-34.4-76.8-76.8v-113c0-42.4,34.4-76.8,76.8-76.8h113
				C354.9,122.7,389.3,157.1,389.3,199.5z M364.5,314.8V197.2c0-27.5-22.2-49.7-49.7-49.7H197.2c-27.5,0-49.7,22.3-49.7,49.7v117.5
				c0,27.5,22.3,49.7,49.7,49.7h117.5C342.2,364.5,364.5,342.2,364.5,314.8z" />
				<path class="st0" d="M256,0c141.4,0,256,114.6,256,256S397.4,512,256,512S0,397.4,0,256S114.6,0,256,0z M389.3,312.5v-113
				c0-42.4-34.4-76.8-76.8-76.8h-113c-42.4,0-76.8,34.4-76.8,76.8v113c0,42.4,34.4,76.8,76.8,76.8h113
				C354.9,389.3,389.3,354.9,389.3,312.5z" />
				<path d="M364.5,197.2v117.5c0,27.5-22.2,49.7-49.7,49.7H197.2c-27.5,0-49.7-22.2-49.7-49.7V197.2c0-27.5,22.3-49.7,49.7-49.7
				h117.5C342.2,147.5,364.5,169.8,364.5,197.2z M338.8,196.8c2.9-2.9,4.8-7,4.8-11.5c0-9-7.3-16.3-16.3-16.3
				c-9,0-16.3,7.3-16.3,16.3c0,9,7.3,16.3,16.3,16.3C331.7,201.6,335.8,199.8,338.8,196.8z M304.4,304.4c12.4-12.4,20-29.5,20-48.4
				c0-37.8-30.6-68.4-68.4-68.4s-68.4,30.6-68.4,68.4s30.6,68.4,68.4,68.4C274.9,324.4,292,316.7,304.4,304.4z" />
				<path d="M287.4,224.6c8.1,8,13,19.1,13,31.4c0,24.5-19.9,44.5-44.5,44.5c-24.6,0-44.5-19.9-44.5-44.5s19.9-44.5,44.5-44.5
				C268.3,211.5,279.4,216.5,287.4,224.6z" />
			</g>
			<g></g>
		</g>
	</g>
</svg>