<svg id="Слой_1" data-name="Слой 1" xmlns="http://www.w3.org/2000/svg" viewBox="0 0 648.89 542.88">
	<defs>
		<style>.cls-1{fill:none;stroke:#fff;stroke-miterlimit:10;stroke-width:15px;}</style>
	</defs>
	<polygon class="cls-1" points="324.79 8.69 9.46 231.55 640.13 231.55 324.79 8.69" />
	<line class="cls-1" x1="10.16" y1="242.88" x2="640.82" y2="242.88" />
	<line class="cls-1" x1="1.45" y1="225.15" x2="316.43" y2="2.04" />
	<line class="cls-1" x1="647.45" y1="225.15" x2="332.46" y2="2.04" />
	<rect class="cls-1" x="37.24" y="316.38" width="65.91" height="184.5" />
	<rect class="cls-1" x="287.24" y="316.63" width="65.91" height="184.5" />
	<rect class="cls-1" x="540.24" y="316.63" width="65.91" height="184.5" />
	<line class="cls-1" x1="25.95" y1="297.38" x2="114.95" y2="297.38" />
	<line class="cls-1" x1="26.45" y1="520.38" x2="115.45" y2="520.38" />
	<line class="cls-1" x1="15.45" y1="276.38" x2="124.95" y2="276.38" />
	<line class="cls-1" x1="16.45" y1="540.38" x2="125.95" y2="540.38" />
	<line class="cls-1" x1="275.95" y1="297.38" x2="364.95" y2="297.38" />
	<line class="cls-1" x1="276.45" y1="520.38" x2="365.45" y2="520.38" />
	<line class="cls-1" x1="265.45" y1="276.38" x2="374.95" y2="276.38" />
	<line class="cls-1" x1="266.45" y1="540.38" x2="375.95" y2="540.38" />
	<line class="cls-1" x1="528.95" y1="297.38" x2="617.95" y2="297.38" />
	<line class="cls-1" x1="529.45" y1="520.38" x2="618.45" y2="520.38" />
	<line class="cls-1" x1="518.45" y1="276.38" x2="627.95" y2="276.38" />
	<line class="cls-1" x1="519.45" y1="540.38" x2="628.95" y2="540.38" />
</svg>