<svg version="1.1" id="Слой_1" xmlns="http://www.w3.org/2000/svg" xmlns:xlink="http://www.w3.org/1999/xlink" x="0px" y="0px"
	 viewBox="0 0 1000 1000" style="enable-background:new 0 0 1000 1000;" xml:space="preserve">
<style type="text/css">
	.st0{fill:none;stroke:#fff;stroke-miterlimit:10;}
	.st1{stroke:#fff;stroke-miterlimit:10;}
</style>
<rect x="50.3" y="47.2" class="st0" width="906.6" height="422.7"/>
<rect x="50.3" y="529.8" class="st0" width="906.6" height="424"/>
<rect y="469.9" class="st0" width="1000" height="59.9"/>
<rect class="st0" width="1000" height="1000"/>
<polyline class="st0" points="0,1000 50.3,953.8 50.3,47.2 0,0 1000,0 956.9,47.2 956.9,953.8 1000,1000 "/>
<circle class="st0" cx="26" cy="514.8" r="1.5"/>
<circle class="st1" cx="26" cy="484.5" r="1.5"/>
<circle class="st1" cx="978.4" cy="514.8" r="1.5"/>
<circle class="st1" cx="978.4" cy="953.8" r="1.5"/>
<circle class="st1" cx="956.9" cy="976.9" r="1.5"/>
<circle class="st1" cx="50.3" cy="976.9" r="1.5"/>
<circle class="st1" cx="26.7" cy="955.3" r="1.5"/>
<circle class="st1" cx="978.4" cy="47.2" r="1.5"/>
<circle class="st1" cx="956.9" cy="23.6" r="1.5"/>
<circle class="st1" cx="50.3" cy="23.6" r="1.5"/>
<circle class="st1" cx="25.2" cy="47.2" r="1.5"/>
<circle class="st1" cx="978.4" cy="484.5" r="1.5"/>
</svg>
